<?xml version="1.0" encoding="utf-8"?>
<!-- Generator: Adobe Illustrator 25.4.1, SVG Export Plug-In . SVG Version: 6.00 Build 0)  -->
<svg version="1.1" id="Layer_1" xmlns="http://www.w3.org/2000/svg" xmlns:xlink="http://www.w3.org/1999/xlink" x="0px" y="0px"
	 viewBox="0 0 2500 2500" style="enable-background:new 0 0 2500 2500;" xml:space="preserve">
<style type="text/css">
	.st0{fill:#FFFFFF;}
</style>
<path class="st0" d="M1250,0C559.6,0,0,559.6,0,1250s559.6,1250,1250,1250s1250-559.6,1250-1250S1940.4,0,1250,0z M616.7,1292
	L616.7,1292l5.4-8.5l325.2-508.7c3.3-5.2,10.2-6.7,15.4-3.4c1.8,1.2,3.2,2.8,4.1,4.8c54.3,121.8,101.2,273.1,79.3,367.4
	c-9.4,38.8-35.1,91.3-64,139.8c-3.8,7.1-7.8,14-12.2,20.7c-2.1,3.1-5.5,4.9-9.3,4.9H626.2C617.2,1309.1,612,1299.3,616.7,1292z
	 M2066.1,1467c0,4.7-2.8,8.7-6.9,10.5c-25.2,10.8-111.3,50.4-147.2,100.2c-91.4,127.3-161.3,309.3-317.5,309.3H943
	c-230.9,0-418-187.8-418-419.5v-7.4c0-6.2,5-11.2,11.2-11.2h363.2c7.2,0,12.5,6.7,11.8,13.8c-2.6,24,2,48.2,13,69.7
	c21.5,43.6,65.9,71.2,114.5,71.1h179.8v-140.4h-177.8c-6.3-0.1-11.4-5.3-11.3-11.6c0-2.3,0.7-4.5,2.1-6.4c1.9-2.9,4.1-6,6.4-9.5
	c23.2-33.4,44.8-67.8,64.8-103.3c16.3-28.5,32.1-59,44.8-89.5c2.6-5.5,4.6-11.2,6.7-16.7c3.5-9.7,7.1-18.9,9.7-28
	c2.6-7.7,4.6-15.8,6.7-23.4c6-25.9,8.6-53.4,8.6-81.9c0-11.2-0.5-22.9-1.6-34.1c-0.5-12.2-2-24.4-3.6-36.6
	c-1.2-10.9-2.9-21.8-5-32.6c-2.7-16.4-6.1-32.7-10.3-48.8l-1.4-6.2c-3.1-11.2-5.7-21.8-9.3-33c-9.9-34.2-21.3-68-34.2-101.2
	c-4.5-12.7-9.6-24.9-14.8-37.1c-7.6-18.4-15.3-35.1-22.3-50.9c-3.6-7.2-6.7-13.7-9.8-20.4c-3.4-7.5-7-15-10.7-22.3
	c-2.6-5.5-5.5-10.6-7.6-15.8l-22-40.6c-1.9-3.4-0.7-7.8,2.7-9.7c1.6-0.9,3.6-1.2,5.4-0.7l137.4,37.3h0.4c0.3,0,0.4,0.1,0.5,0.1
	l18.1,5l19.9,5.6l7.3,2.1v-81.7c0-39.4,31.6-71.4,70.6-71.4c19.5,0,37.3,7.9,50,20.9c12.7,13,20.7,30.7,20.7,50.5v121.2l14.6,4.1
	c1.2,0.4,2.3,0.9,3.3,1.7c3.6,2.7,8.8,6.7,15.3,11.5c5.2,4.1,10.7,9.1,17.3,14.3c13.2,10.7,29,24.4,46.4,40.2
	c4.6,4,9.1,8.1,13.2,12.2c24.9,22.9,48.7,47,71.3,72.2c6.7,7.6,13.2,15.3,19.9,23.4c6.7,8.2,13.8,16.3,19.9,24.4
	c8.1,10.8,16.8,22,24.4,33.7c3.6,5.5,7.7,11.2,11.2,16.7c9.8,14.8,18.4,30,26.6,45.3c3.5,7.1,7.1,14.8,10.1,22.4
	c9.1,20.4,16.3,41.3,20.9,62c1.4,4.5,2.5,9.4,2.9,13.8v1c1.6,6.2,2.1,12.7,2.6,19.4c2.1,21.4,0.9,43-3.6,64.1
	c-2,9.1-4.5,18.1-7.6,26.9c-3.1,8.7-6.2,17.8-10.2,26.4c-7.7,18.2-17,35.7-27.6,52.4c-3.5,6.2-7.6,12.7-11.7,18.9
	c-4.5,6.6-9.1,12.7-13.2,18.8c-5.6,7.7-11.7,15.8-17.8,23c-5.5,7.6-11.2,15.2-17.3,21.8c-8.3,9.9-16.7,19.5-25.4,29
	c-5.2,6-10.7,12.2-16.3,17.7c-5.5,6.2-11.2,11.7-16.3,16.8c-8.6,8.6-15.8,15.3-21.8,20.8l-14.1,13c-2.1,1.8-4.8,2.8-7.6,2.8h-109.4
	v140.4h137.7c30.7,0,60.4-11,83.7-31c8.1-7,43.4-37.6,85.2-83.7c1.4-1.6,3.2-2.7,5.3-3.2l380.3-109.9c6-1.7,12.2,1.8,13.8,7.8
	c0.3,1,0.4,2,0.4,3l0,0V1467z"/>
</svg>
