<?xml version="1.0" encoding="utf-8"?>
<!-- Generator: Adobe Illustrator 16.0.0, SVG Export Plug-In . SVG Version: 6.00 Build 0)  -->
<!DOCTYPE svg PUBLIC "-//W3C//DTD SVG 1.1//EN" "http://www.w3.org/Graphics/SVG/1.1/DTD/svg11.dtd">
<svg version="1.1" id="Layer_1" xmlns="http://www.w3.org/2000/svg" xmlns:xlink="http://www.w3.org/1999/xlink" x="0px" y="0px"
	 width="612px" height="236px" viewBox="0 277.5 612 236" enable-background="new 0 277.5 612 236" xml:space="preserve">
<g id="Layer_2">
	<g id="Layer_1-2">
		<path fill="#FFFFFF" d="M102.392,282.909h25.814l32.087,83.663h-25.427l-7.009-17.837h-25.208l-6.892,17.837H70.305
			L102.392,282.909z M124.604,331.232l-9.357-24.523l-9.345,24.523H124.604z"/>
		<path fill="#FFFFFF" d="M212.966,282.909h43.109c9.87,0,17.36,2.856,22.471,8.57c5.111,5.713,7.667,13.122,7.667,22.226
			c0.097,5.458-1.2,10.852-3.769,15.669c-2.461,4.551-6.18,8.297-10.713,10.79c-4.965,2.669-10.538,4.003-16.173,3.872h-18.186
			v22.536h-24.407L212.966,282.909L212.966,282.909z M249.997,325.386c3.12,0.202,6.174-0.956,8.376-3.175
			c2.034-2.353,3.083-5.399,2.93-8.506c0.196-3.191-0.751-6.349-2.671-8.906c-1.769-2.117-4.44-3.188-7.99-3.188h-13.269v23.775
			H249.997z"/>
		<path fill="#FFFFFF" d="M336.229,282.909h63.399v18.702h-38.967v13.643h34.165v18.974h-34.165v13.643h38.967v18.702h-63.399
			V282.909z"/>
		<path fill="#FFFFFF" d="M479.264,324.211l-29.75-41.302h29.105l15.333,21.942l15.488-21.942h29.093l-29.776,41.302l30.978,42.348
			H510.19l-16.237-22.716l-16.107,22.729h-29.493L479.264,324.211z"/>
		<polygon fill="#FFFFFF" points="132.697,424.124 122.694,468.551 109.955,424.124 109.774,424.124 89.949,424.124 89.769,424.124 
			77.042,468.551 67.039,424.124 43.123,424.124 62.483,507.788 84.567,507.788 99.862,457.024 115.157,507.788 137.241,507.788 
			156.601,424.124 		"/>
		<path fill="#FFFFFF" d="M171.922,498.753c-7.185-6.884-10.777-17.729-10.777-32.539c0-15.247,3.575-26.291,10.726-33.132
			s17.837-10.261,32.061-10.261c14.198,0,24.872,3.44,32.022,10.325c7.15,6.884,10.721,17.905,10.713,33.066
			c0,14.723-3.593,25.548-10.777,32.476c-7.185,6.927-17.838,10.395-31.958,10.402C189.785,509.092,179.115,505.646,171.922,498.753
			z M217.458,483.032c2.814-3.493,4.225-9.087,4.234-16.779c0-8.147-1.39-13.952-4.169-17.411c-2.762-3.459-7.318-5.163-13.63-5.163
			s-10.881,1.729-13.643,5.163s-4.156,9.268-4.156,17.411c0,7.744,1.407,13.337,4.221,16.779c2.813,3.44,7.353,5.196,13.617,5.266
			C210.144,488.298,214.652,486.543,217.458,483.032L217.458,483.032z"/>
		<path fill="#FFFFFF" d="M262.219,424.124h24.42v64.962h37.676v18.702h-62.097V424.124z"/>
		<path fill="#FFFFFF" d="M318.468,424.124h25.466l19.49,55.346l19.489-55.346h25.595l-32.1,83.664h-25.814L318.468,424.124z"/>
		<path fill="#FFFFFF" d="M424.087,424.124h63.398v18.703H448.52v13.643h34.203v18.974H448.52v13.644h38.967v18.702h-63.398
			L424.087,424.124L424.087,424.124z"/>
		<path fill="#FFFFFF" d="M513.08,507.724c-4.393-0.729-8.671-2.03-12.727-3.872v-20.136c4.216,1.9,8.607,3.379,13.113,4.415
			c4.339,1.072,8.786,1.641,13.256,1.69c4.672,0,8.027-0.432,10.067-1.291c1.999-0.747,3.252-2.739,3.059-4.865
			c0.064-1.443-0.479-2.849-1.497-3.872c-1.259-1.148-2.738-2.026-4.35-2.582c-1.91-0.73-4.943-1.751-9.1-3.059
			c-1.381-0.35-2.428-0.646-3.124-0.903c-4.728-1.379-9.246-3.389-13.437-5.977c-3.025-1.915-5.458-4.639-7.021-7.86
			c-1.54-3.632-2.271-7.557-2.144-11.5c0-8.234,2.947-14.494,8.841-18.779c5.896-4.285,14.557-6.437,25.982-6.454
			c4.676,0.023,9.344,0.396,13.965,1.11c4.112,0.564,8.174,1.454,12.146,2.658v20.381c-7.048-2.914-14.587-4.456-22.213-4.543
			c-3.474-0.124-6.947,0.228-10.325,1.045c-2.114,0.451-3.577,2.386-3.435,4.543c-0.066,1.322,0.452,2.607,1.42,3.511
			c1.29,1.039,2.772,1.812,4.362,2.271c1.949,0.646,5.254,1.575,9.938,2.788c5.463,1.299,10.665,3.517,15.386,6.557
			c3.269,2.163,5.859,5.205,7.473,8.777c1.478,3.808,2.184,7.869,2.078,11.952c0.251,7.286-3.135,14.224-9.035,18.509
			c-6.021,4.543-14.882,6.817-26.574,6.827C523.79,509.098,518.399,508.648,513.08,507.724z"/>
		<polygon fill="#FFFFFF" points="572.686,404.932 39.354,404.932 39.354,395.329 39.354,385.726 572.686,385.726 		"/>
		<polygon fill="#FFFFFF" points="612,507.659 578.57,507.659 578.57,488.298 592.64,488.298 592.64,302.269 578.57,302.269 
			578.57,282.909 612,282.909 		"/>
		<polygon fill="#FFFFFF" points="33.429,507.659 0,507.659 0,282.909 33.429,282.909 33.429,302.269 19.36,302.269 19.36,488.298 
			33.429,488.298 		"/>
	</g>
</g>
</svg>
